<svg height="447pt" viewBox="-9 0 447 447.05414" width="447pt" xmlns="http://www.w3.org/2000/svg"><path d="m423.109375 318.972656-31.320313.25-10.371093-18.800781s15.941406-.046875 23.691406-.109375c7.75-.058594 14.128906 3.660156 16.046875 9.28125 1.03125 3.035156 1.683594 6.183594 1.953125 9.378906zm0 0" fill="#f8ec7d"/><path d="m157.066406 387.382812-5.308594-39.621093c-.089843-12.117188 8.28125-23.160157 20.398438-23.269531l-.046875.089843 140.847656-1.039062 48.699219-.351563 32.152344-.238281h.039062c12.121094-.058594 20.910156 10.75 21 22.878906l-6.800781 54.519531c.027344 6.480469-5.179687 11.765626-11.660156 11.832032l-1.257813.007812-29.582031.222656-163.527344 1.199219-29.570312.21875-1.5625.011719c-6.480469.03125-11.765625-5.179688-11.828125-11.660156zm221.792969-8.03125c6.71875-.046874 12.128906-5.539062 12.078125-12.257812-.050781-6.722656-5.539062-12.128906-12.261719-12.078125-6.71875.046875-12.128906 5.535156-12.078125 12.257813.050782 6.71875 5.539063 12.128906 12.261719 12.078124zm-190.632813 1.410157c6.726563-.046875 12.136719-5.535157 12.089844-12.257813s-5.535156-12.136718-12.257812-12.089844c-6.726563.046876-12.136719 5.535157-12.089844 12.257813.046875 6.726563 5.535156 12.136719 12.257812 12.089844zm0 0" fill="#e2d574"/><path d="m395.289062 433.582031c.015626 3.242188-2.589843 5.890625-5.832031 5.921875l-17.828125.128906c-3.242187.019532-5.890625-2.589843-5.921875-5.828124l-.148437-20.441407-.011719-.949219 29.582031-.222656.007813.953125zm0 0" fill="#f8ec7d"/><path d="m172.15625 324.492188 2.0625-3.710938 10.417969-18.789062 11.070312-19.960938c6.0625-12.726562 15.800781-23.507812 28.96875-23.609375l71.023438-.519531 45.898437-.339844c13.179688-.097656 21.78125 10.539062 28.988282 23.25l10.832031 19.609375 10.371093 18.800781 2.058594 3.730469h-.039062l-32.152344.238281-.007812-.808594c-.171876-13.398437-11.132813-24.140624-24.53125-24.042968-13.398438.101562-24.199219 11.003906-24.167969 24.402344l.007812.800781-140.847656 1.039062zm0 0" fill="#f8ec7d"/><path d="m361.648438 322.382812.007812.808594-48.699219.351563-.007812-.800781c-.03125-13.398438 10.769531-24.300782 24.167969-24.402344 13.398437-.097656 24.359374 10.644531 24.53125 24.042968zm0 0" fill="#e2d574"/><path d="m294.898438 110.0625.800781 147.839844-71.023438.519531c-13.167969.101563-22.90625 10.882813-28.96875 23.609375l-11.070312 19.960938-.027344-.019532s-16.042969.089844-23.792969.140625-14.070312 3.859375-15.898437 9.519531c-.988281 3.050782-1.59375 6.210938-1.808594 9.410157l31.089844-.269531.019531.007812-2.0625 3.710938c-12.117188.109374-20.488281 11.152343-20.398438 23.269531l5.308594 39.621093-108.6875.609376c-22.484375.113281-40.796875-18.027344-40.902344-40.507813l-1.449218-299.890625c-.105469-22.484375 18.035156-40.796875 40.519531-40.902344l142.859375-.6875 1.929688.179688.300781 62.160156c.109375 22.480469 18.421875 40.617188 40.902343 40.507812l62.347657-.296874zm0 0" fill="#e48e66"/><path d="m294.886719 108.34375v.210938l-62.347657.296874c-22.480468.109376-40.792968-18.027343-40.902343-40.507812l-.300781-62.160156.222656.019531zm0 0" fill="#cc7350"/><path d="m202.175781 435.003906c.015625 1.558594-.589843 3.058594-1.683593 4.167969-1.09375 1.113281-2.585938 1.742187-4.144532 1.75l-17.828125.132813c-3.242187.019531-5.886719-2.589844-5.910156-5.832032l-.152344-20.429687-.007812-.960938 29.570312-.21875.007813.960938zm0 0" fill="#f8ec7d"/><path d="m184.636719 301.992188-10.417969 18.789062-.019531-.007812-31.089844.269531c.214844-3.199219.820313-6.359375 1.808594-9.410157 1.828125-5.660156 8.148437-9.460937 15.898437-9.519531 7.75-.058593 23.792969-.140625 23.792969-.140625zm0 0" fill="#f8ec7d"/><g fill="#63316d"><path d="m188.136719 350.414062h-.132813c-10.039062.035157-18.148437 8.203126-18.109375 18.242188.035157 10.035156 8.203125 18.144531 18.242188 18.105469h.136719c10.035156-.035157 18.144531-8.203125 18.105468-18.238281-.035156-10.039063-8.203125-18.148438-18.242187-18.109376zm4.402343 22.507813c-1.148437 1.171875-2.71875 1.835937-4.359374 1.839844h-.046876c-3.410156.015625-6.183593-2.742188-6.195312-6.152344-.015625-3.410156 2.742188-6.183594 6.152344-6.195313h.046875c2.488281 0 4.734375 1.492188 5.695312 3.789063.960938 2.296875.449219 4.945313-1.296875 6.71875zm0 0"/><path d="m378.769531 349.011719h-.136719c-10.035156.039062-18.140624 8.203125-18.105468 18.238281s8.203125 18.140625 18.234375 18.101562h.136719c10.035156-.035156 18.140624-8.199218 18.105468-18.234374-.035156-10.035157-8.203125-18.140626-18.234375-18.105469zm4.398438 22.5c-1.960938 1.996093-5.011719 2.421875-7.445313 1.046875-2.429687-1.378906-3.632812-4.21875-2.933594-6.921875.703126-2.707031 3.132813-4.601563 5.929688-4.625h.042969c2.492187 0 4.738281 1.492187 5.699219 3.785156.960937 2.296875.449218 4.945313-1.296876 6.714844zm0 0"/><path d="m426.835938 307.652344c-2.773438-8.117188-11.226563-13.339844-21.578126-13.339844h-.199218c-5.453125.042969-14.96875.082031-20.113282.101562l-9.140624-16.558593c-6.949219-12.253907-17.09375-26.292969-34.019532-26.292969h-.234375l-39.890625.292969-.761718-141.832031-.011719-1.679688c0-1.605469-.640625-3.140625-1.78125-4.269531l-103.328125-102.140625c-.996094-.980469-2.296875-1.585938-3.6875-1.707032l-2.125-.1992182c-.195313-.0195313-.390625-.0273438-.585938-.0273438l-142.859375.691406c-25.800781.117188-46.6171872 21.132813-46.4921872 46.933594l1.4492182 299.882812c.121094 25.710938 20.992188 46.488282 46.699219 46.484376h.238281l103.414063-.578126 1.238281 9.226563c.25 7.929687 5.730469 14.726563 13.425782 16.65625l.117187 15.964844c.050781 6.527343 5.355469 11.789062 11.882813 11.792969h.070312l17.84375-.128907c6.550781-.0625 11.816406-5.414062 11.773438-11.964843l-.113282-15.390626 151.53125-1.113281.113282 15.402344c.070312 6.515625 5.371093 11.765625 11.890624 11.773437h.070313l17.84375-.128906c6.546875-.074218 11.804687-5.417968 11.773437-11.964844l-.117187-16.050781c7.503906-2.148437 12.726563-8.941406 12.875-16.746093l6.757813-54.167969c.03125-.261719.046874-.523438.046874-.785157-.011718-7.71875-2.980468-15.140624-8.300781-20.730468l10.609375-.085938c1.640625-.015625 3.207032-.699218 4.328125-1.898437 1.121094-1.199219 1.707031-2.804688 1.613281-4.441407-.292968-3.742187-1.054687-7.429687-2.265624-10.980468zm-85.191407-44.089844h.132813c8.5 0 15.5625 6.054688 23.558594 20.152344l18.390624 33.3125-16.566406.121094c-2.617187-14.433594-15.183594-24.933594-29.855468-24.933594h-.230469c-14.753907.109375-27.292969 10.8125-29.714844 25.371094l-125.019531.921874 18.613281-33.566406c.0625-.105468.117187-.21875.171875-.328125 3.570312-7.5 11.382812-20.101562 23.601562-20.191406zm13.214844 53.675781-35.199219.253907c2.25-7.816407 9.371094-13.21875 17.503906-13.277344 8.132813-.058594 15.335938 5.242187 17.695313 13.023437zm-184.191406-2.433593-20.492188.175781c.132813-.488281.28125-.992188.449219-1.5 1.007812-3.121094 5.21875-5.328125 10.230469-5.367188 3.558593-.019531 8.867187-.050781 13.566406-.082031zm109.898437-212.179688-48.054687.230469c-19.167969.089843-34.777344-15.375-34.871094-34.539063l-.234375-47.894531zm-232.21875 279.367188c-19.167968.09375-34.78125-15.371094-34.871094-34.539063l-1.449218-299.886719c-.089844-19.171875 15.378906-34.785156 34.550781-34.875l138.789063-.667968.269531 56.351562c.125 25.699219 20.992187 46.472656 46.695312 46.480469h.234375l56.355469-.273438.746094 137.363281-65.035157.480469c-13.851562.101563-26.011718 9.640625-34.261718 26.859375l-9.265625 16.707032c-5.15625.03125-14.828125.085937-20.332031.121093-10.441407.082031-18.902344 5.449219-21.5625 13.664063-1.160157 3.570312-1.863282 7.273437-2.097657 11.019531-.066406 1.632813.535157 3.226563 1.667969 4.402344 1.132812 1.179687 2.695312 1.847656 4.332031 1.84375h.050781l10.265626-.085938c-5.089844 5.734375-7.828126 13.183594-7.667969 20.851563.003906.253906.019531.503906.054687.753906l4.40625 32.859375zm147.828125 52.929687-17.570312.128906-.109375-15.261719 17.570312-.132812zm175.53125-1.289063-.113281-15.265624 17.582031-.132813.109375 15.269531zm30.386719-34.023437c-.03125.261719-.046875.527344-.046875.789063.003906 3.167968-2.539063 5.746093-5.707031 5.785156l-194.367188 1.429687-31.132812.230469c-1.523438.019531-2.992188-.578125-4.066406-1.664062-1.085938-1.0625-1.707032-2.515626-1.714844-4.035157-.003906-.253906-.019532-.507812-.054688-.761719l-7.246094-54.019531c.082032-10.121093 6.867188-16.34375 13.699219-16.824219.214844.027344.433594.039063.648438.042969h.046875l221.617187-1.628906h.109375c9.007813-.085937 14.738282 8.488281 14.964844 16.558594zm-6.777344-86.414063-3.761718-6.808593c4.703124-.023438 10.015624-.046875 13.59375-.074219h.109374c4.972657 0 9.167969 2.136719 10.222657 5.214844.171875.511718.328125 1.011718.464843 1.5zm0 0"/><path d="m252.234375 351.773438c-3.3125.023437-5.980469 2.730468-5.957031 6.042968l.082031 11.21875c.023437 3.296875 2.703125 5.957032 6 5.957032h.042969c3.3125-.023438 5.980468-2.726563 5.957031-6.042969l-.082031-11.21875c-.003906-1.59375-.644532-3.121094-1.777344-4.238281-1.136719-1.121094-2.671875-1.738282-4.265625-1.71875zm0 0"/><path d="m231.449219 351.933594c-3.3125.027344-5.976563 2.734375-5.953125 6.046875l.089844 11.21875c.027343 3.296875 2.707031 5.953125 6 5.953125h.050781c3.3125-.027344 5.976562-2.734375 5.953125-6.046875l-.089844-11.21875c-.03125-3.3125-2.738281-5.976563-6.050781-5.953125zm0 0"/><path d="m335.386719 351.164062h-.042969c-3.3125.023438-5.980469 2.726563-5.957031 6.042969l.082031 11.21875c.023438 3.296875 2.703125 5.957031 6 5.957031h.042969c3.3125-.023437 5.980469-2.730468 5.957031-6.042968l-.082031-11.21875c-.023438-3.296875-2.699219-5.957032-6-5.957032zm0 0"/><path d="m273.058594 351.625h-.042969c-3.316406.023438-5.980469 2.726562-5.957031 6.042969l.078125 11.21875c.023437 3.296875 2.703125 5.957031 6 5.957031h.042969c3.316406-.023438 5.984374-2.730469 5.957031-6.042969l-.078125-11.21875c-.023438-3.296875-2.703125-5.957031-6-5.957031zm0 0"/><path d="m293.785156 351.472656c-3.3125.023438-5.980468 2.730469-5.957031 6.042969l.078125 11.21875c.023438 3.296875 2.703125 5.957031 6 5.957031h.046875c3.3125-.023437 5.980469-2.726562 5.957031-6.042968l-.082031-11.21875c-.039063-3.308594-2.734375-5.964844-6.042969-5.957032zm0 0"/><path d="m314.609375 351.324219h-.042969c-3.3125.023437-5.980468 2.726562-5.957031 6.042969l.082031 11.207031c.023438 3.296875 2.703125 5.960937 6 5.957031h.042969c3.3125-.023438 5.980469-2.726562 5.957031-6.042969l-.078125-11.207031c-.023437-3.300781-2.707031-5.960938-6.003906-5.957031zm0 0"/><path d="m165.347656 221.523438h-20.339844c-3.3125 0-6 2.6875-6 6s2.6875 6 6 6h20.339844c3.3125 0 6-2.6875 6-6s-2.6875-6-6-6zm0 0"/><path d="m66.566406 182.644531h168.929688c3.316406 0 6-2.6875 6-6 0-3.316406-2.683594-6-6-6h-168.929688c-3.3125 0-6 2.683594-6 6 0 3.3125 2.6875 6 6 6zm0 0"/><path d="m119.21875 221.523438h-52.652344c-3.3125 0-6 2.6875-6 6s2.6875 6 6 6h52.652344c3.3125 0 6-2.6875 6-6s-2.6875-6-6-6zm0 0"/></g></svg>